<svg width="357" height="302" viewBox="0 0 357 302" fill="none" xmlns="http://www.w3.org/2000/svg">
<g style="mix-blend-mode:hard-light" opacity="0.2" clip-path="url(#clip0_504_568)">
<path d="M333.509 85.3087C343.202 82.1013 351.71 76.0633 357.935 67.9742C364.16 59.8851 367.817 50.1163 368.431 39.9295C369.046 29.7427 366.592 19.6056 361.385 10.827C356.178 2.04845 348.458 -4.96841 339.221 -9.31738L335.908 17.6106L330.059 16.8917L321.723 55.566L318.169 55.11L314.212 87.7821C315.285 87.8495 316.358 87.9107 317.444 87.9107C322.904 87.908 328.327 87.0295 333.509 85.3087ZM343.286 25.7156C345.651 24.9321 348.195 24.8672 350.597 25.5291C352.998 26.1909 355.15 27.5497 356.779 29.4338C358.408 31.3179 359.441 33.6424 359.748 36.1136C360.055 38.5847 359.622 41.0914 358.504 43.3165C357.386 45.5417 355.632 47.3854 353.465 48.6144C351.299 49.8435 348.816 50.4026 346.331 50.2212C343.847 50.0398 341.472 49.126 339.506 47.5953C337.541 46.0646 336.075 43.9858 335.292 41.6219C334.77 40.0528 334.564 38.3965 334.683 36.7476C334.803 35.0987 335.247 33.4895 335.989 32.0121C336.732 30.5348 337.758 29.2182 339.01 28.1378C340.262 27.0573 341.715 26.2343 343.286 25.7156Z" fill="#723E30"/>
<path d="M377.762 16.8888C374.129 5.92407 367.572 -3.84176 358.796 -11.3565C350.02 -18.8713 339.359 -23.85 327.962 -25.7559L327.319 -20.4492L332.828 -19.7717C334.602 -19.5489 336.241 -18.7103 337.459 -17.4021C338.677 -16.094 339.396 -14.3996 339.491 -12.6152C350.824 -7.56127 360.078 1.22707 365.707 12.2812C371.336 23.3353 372.999 35.9856 370.418 48.118C367.837 60.2504 361.169 71.1298 351.527 78.9384C341.885 86.747 329.854 91.0116 317.444 91.0195C316.232 91.0195 315.033 90.9553 313.838 90.876L312.712 100.175C323.14 100.954 333.599 99.1486 343.162 94.9185C352.724 90.6884 361.094 84.1646 367.529 75.9258C373.964 67.687 378.264 57.988 380.049 47.6894C381.835 37.3908 381.049 26.811 377.762 16.8888Z" fill="#723E30"/>
<path d="M271.819 13.9342C268.529 20.4837 266.688 27.6642 266.42 34.9881C266.152 42.3119 267.464 49.6076 270.268 56.3796C273.071 63.1516 277.3 69.2413 282.666 74.235C288.033 79.2288 294.412 83.0097 301.37 85.3208L305.23 53.4495L301.349 52.952L301.368 13.3632L297.233 12.8546L300.19 -11.1394C287.847 -6.76007 277.679 2.22589 271.819 13.9342ZM283.973 43.7504C282.955 44.0781 282.031 44.6488 281.283 45.4131C280.535 46.1774 279.984 47.1124 279.678 48.1372C279.372 49.162 279.321 50.2459 279.528 51.295C279.736 52.3442 280.195 53.3271 280.868 54.1588C280.036 53.719 279.31 53.1036 278.739 52.3554C278.169 51.6072 277.768 50.744 277.565 49.8256C277.361 48.9071 277.36 47.9555 277.561 47.0365C277.762 46.1176 278.161 45.2533 278.729 44.5036C279.298 43.7539 280.022 43.1367 280.853 42.6947C281.684 42.2528 282.601 41.9965 283.54 41.9439C284.48 41.8913 285.42 42.0436 286.295 42.3902C287.17 42.7367 287.959 43.2691 288.607 43.9507C287.138 43.3248 285.491 43.2536 283.973 43.7504Z" fill="#723E30"/>
<path d="M146.439 302C166.687 301.991 186.714 297.789 205.256 289.658C223.798 281.528 240.454 269.645 254.172 254.759C267.89 239.873 278.374 222.308 284.961 203.171C291.549 184.033 294.097 163.739 292.446 143.568C292.059 143.954 291.708 144.371 291.311 144.748L289.531 146.44L286.569 149.257C288.199 184.765 276.283 219.568 253.231 246.634C230.178 273.699 197.706 291.01 162.377 295.069C127.047 299.128 91.4924 289.632 62.897 268.501C34.3016 247.369 14.797 216.176 8.32386 181.224C1.8507 146.273 8.89159 110.169 28.024 80.2061C47.1564 50.2434 76.9539 28.6559 111.396 19.8053C145.839 10.9548 182.358 15.5008 213.577 32.5251C244.795 49.5493 268.385 77.7826 279.58 111.521C281.867 118.437 283.618 125.519 284.819 132.704C285.725 131.724 286.584 130.71 287.415 129.671C288.295 128.572 289.132 127.445 289.926 126.288C288.771 120.632 287.288 115.049 285.484 109.565C282.383 100.203 278.349 91.1764 273.443 82.6206C280.885 89.7562 289.948 94.9819 299.853 97.8498L300.991 88.4584C290.09 84.9829 280.57 78.1478 273.794 68.9325C267.018 59.7172 263.334 48.5946 263.271 37.1584C263.208 25.7223 266.768 14.5596 273.441 5.26975C280.114 -4.0201 289.558 -10.9603 300.419 -14.5563C300.485 -14.5784 300.552 -14.592 300.618 -14.6136L300.793 -16.0335C301.045 -18.0366 302.08 -19.8586 303.672 -21.1015C305.264 -22.3444 307.283 -22.9071 309.288 -22.6669L314.372 -22.0423L314.919 -26.5598C305.08 -26.1899 295.462 -23.5351 286.828 -18.8057C278.194 -14.0763 270.78 -7.40228 265.174 0.687716C259.568 8.77771 255.923 18.0614 254.53 27.8033C253.136 37.5452 254.031 47.4777 257.144 56.8139C257.747 58.6353 258.456 60.3902 259.203 62.1178C243.456 43.1501 223.173 28.4633 200.233 19.4191C177.294 10.3748 152.441 7.26575 127.979 10.3803C103.517 13.4949 80.238 22.7323 60.2997 37.236C40.3615 51.7396 24.4097 71.04 13.9231 93.3479C3.43654 115.656 -1.24523 140.249 0.311836 164.847C1.8689 189.446 9.61441 213.253 22.8302 234.062C36.0461 254.871 54.3044 272.008 75.9125 283.884C97.5206 295.761 121.779 301.992 146.439 302Z" fill="#723E30"/>
<path d="M283.151 134.437C277.626 98.9503 258.491 67.01 229.802 45.3874C201.114 23.7647 165.127 14.1599 129.473 18.6094C93.8192 23.059 61.3005 41.213 38.8119 69.2225C16.3233 97.2319 5.6329 132.894 9.00726 168.649C12.3816 204.404 29.5554 237.439 56.8875 260.751C84.2197 284.064 119.561 295.82 155.419 293.527C191.276 291.234 224.831 275.073 248.968 248.469C273.105 221.866 285.927 186.913 284.716 151.02L261.69 172.919C261.874 173.331 262.032 173.756 262.163 174.188C262.319 173.628 262.478 173.07 262.633 172.508C262.566 173.287 262.43 174.053 262.348 174.828C262.722 176.208 262.81 177.65 262.606 179.065C262.403 180.48 261.912 181.838 261.163 183.057C257.371 204.096 247.729 223.644 233.339 239.461C218.95 255.278 200.395 266.726 179.8 272.493C159.204 278.261 137.399 278.115 116.883 272.073C96.3658 266.031 77.9658 254.336 63.7892 238.328C95.817 263.379 133.135 282.41 183.227 265.829C229.445 250.53 247.559 220.097 258.558 186.215L248.494 196.009C248.157 197.003 247.815 197.994 247.45 198.976L248.109 199.653L246.714 201.01C240.127 217.694 229.369 232.412 215.468 243.755C201.568 255.099 184.989 262.69 167.316 265.803C149.643 268.916 131.466 267.447 114.523 261.536C97.5806 255.625 82.4374 245.47 70.5409 232.042C100.041 255.116 134.379 272.535 180.518 257.262C212.341 246.728 229.714 228.452 240.694 206.868L231.842 215.482C230.468 216.804 228.775 217.746 226.928 218.217C218.525 229.896 207.6 239.534 194.962 246.416C182.324 253.298 168.298 257.248 153.924 257.972C139.551 258.696 125.198 256.176 111.932 250.599C98.6661 245.021 86.8266 236.53 77.2922 225.755C104.266 246.853 135.622 262.66 177.81 248.695C195.525 243.407 211.222 232.88 222.833 218.5C220.723 218.264 218.728 217.416 217.093 216.061C209.186 225.972 199.204 234.033 187.849 239.678C176.494 245.324 164.041 248.418 151.362 248.742C138.684 249.067 126.088 246.615 114.459 241.557C102.83 236.5 92.4483 228.961 84.0435 219.468C108.49 238.59 136.865 252.784 175.101 240.127C190.629 235.466 204.465 226.39 214.922 214.005L211.164 210.147C210.961 209.939 210.816 209.698 210.633 209.479C203.59 218.493 194.649 225.847 184.444 231.02C174.238 236.193 163.019 239.058 151.582 239.411C140.145 239.765 128.77 237.598 118.265 233.065C107.76 228.532 98.3811 221.743 90.7947 213.181C112.715 230.326 138.109 242.909 172.392 231.56C186.812 227.258 199.595 218.704 209.07 207.019C208.111 204.945 207.818 202.626 208.23 200.379C208.643 198.133 209.74 196.068 211.373 194.47L221.554 184.563C223.612 179.181 225.391 173.698 226.885 168.134C226.472 172.743 225.648 177.307 224.423 181.77L225.411 180.808L227.64 178.639L229.152 180.191L234.029 175.446C234.651 173.385 235.248 171.313 235.821 169.227C235.675 170.932 235.444 172.622 235.199 174.308L242.037 167.652C244.105 165.631 246.883 164.503 249.775 164.509C250.332 164.522 250.887 164.577 251.435 164.673L282.318 135.303C282.609 135.025 282.867 134.72 283.151 134.437ZM185.936 274.396C242.449 255.69 259.986 215.902 271.57 173.602C269.52 197.56 260.484 220.39 245.58 239.265C230.676 258.14 210.56 272.23 187.723 279.789C164.886 287.348 140.332 288.045 117.102 281.793C93.8729 275.54 72.9891 262.614 57.038 244.615C91.5924 271.643 131.892 292.285 185.936 274.396ZM56.3997 140.399C57.8496 123.449 64.2428 107.297 74.7871 93.9432C85.3314 80.5896 99.5635 70.6213 115.72 65.2731C131.877 59.925 149.249 59.4322 165.683 63.8555C182.118 68.2788 196.893 77.424 208.178 90.1582C183.731 71.0366 155.356 56.8424 117.121 69.4987C77.1381 82.7335 64.5953 110.473 56.3997 140.399ZM47.4633 139.305C49.0629 120.603 56.1167 102.782 67.7508 88.0477C79.385 73.3137 95.0881 62.315 112.915 56.414C130.742 50.5131 149.909 49.9692 168.042 54.8498C186.176 59.7305 202.478 69.8212 214.929 83.8717C187.956 62.7737 156.6 46.9668 114.412 60.9316C70.2969 75.5339 56.5055 106.285 47.4633 139.305ZM65.3371 141.492C66.6371 126.295 72.3693 111.812 81.8237 99.8386C91.2781 87.8652 104.039 78.9273 118.526 74.1319C133.013 69.3366 148.589 68.8946 163.325 72.8608C178.06 76.8269 191.308 85.0267 201.427 96.4447C179.507 79.2999 154.113 66.7175 119.829 78.0658C83.98 89.9323 72.6852 114.659 65.3371 141.492ZM74.274 142.586C75.4242 129.14 80.4956 116.327 88.8601 105.734C97.2245 95.1409 108.514 87.2333 121.331 82.9907C134.148 78.7482 147.929 78.3571 160.966 81.866C174.003 85.3749 185.723 92.6296 194.676 102.731C175.283 87.5629 152.87 76.5928 122.538 86.633C90.8211 97.1316 80.7751 118.846 74.274 142.586ZM87.7202 175.028C83.8725 163.416 83.5565 150.924 86.8119 139.132C90.0674 127.34 96.7481 116.778 106.009 108.781C115.271 100.784 126.696 95.7118 138.842 94.2054C150.987 92.699 163.307 94.8262 174.243 100.318C185.179 105.81 194.24 114.42 200.28 125.059C206.32 135.698 209.068 147.888 208.177 160.088C207.286 172.288 202.795 183.95 195.273 193.599C187.75 203.248 177.534 210.451 165.916 214.297C158.202 216.851 150.06 217.86 141.956 217.269C133.851 216.678 125.943 214.496 118.681 210.85C111.42 207.203 104.949 202.163 99.6363 196.017C94.324 189.871 90.2749 182.739 87.7202 175.028ZM170.89 226.636C158.073 230.879 144.293 231.27 131.256 227.761C118.219 224.252 106.498 216.997 97.546 206.895C116.939 222.063 139.352 233.033 169.684 222.994C201.4 212.495 211.446 190.78 217.948 167.04C216.798 180.486 211.727 193.299 203.362 203.893C194.997 214.486 183.707 222.393 170.89 226.636ZM111.703 52.3645C63.4554 68.3351 48.4156 102.098 38.5259 138.212C40.2754 117.758 47.99 98.2664 60.7141 82.1522C73.4381 66.0379 90.6125 54.0089 110.109 47.5551C129.606 41.1014 150.569 40.5066 170.401 45.8445C190.233 51.1823 208.063 62.2182 221.681 77.5851C192.18 54.5103 157.843 37.0916 111.703 52.3645ZM108.995 43.7972C56.6138 61.1358 40.3257 97.9113 29.589 137.118C31.4885 114.912 39.8639 93.7514 53.6778 76.2569C67.4917 58.7624 86.1371 45.703 107.304 38.6964C128.471 31.6899 151.229 31.0441 172.76 36.8391C194.291 42.634 213.647 54.6151 228.432 71.298C196.404 46.2473 159.086 27.2159 108.995 43.7972ZM106.286 35.2301C49.7723 53.9366 32.2358 93.7244 20.652 136.024C22.7013 112.067 31.7376 89.2362 46.6415 70.3614C61.5453 51.4866 81.6617 37.3967 104.499 29.8374C127.336 22.278 151.89 21.5813 175.119 27.8335C198.349 34.0858 219.232 47.0122 235.184 65.0115C200.629 37.984 160.33 17.3408 106.286 35.2301Z" fill="#723E30"/>
<path d="M153.73 177.52C158.071 176.084 161.888 173.392 164.698 169.787C167.509 166.182 169.186 161.825 169.519 157.267C169.852 152.709 168.825 148.155 166.569 144.18C164.312 140.205 160.927 136.988 156.841 134.937C152.755 132.885 148.152 132.09 143.615 132.653C139.077 133.215 134.808 135.111 131.348 138.098C127.888 141.086 125.392 145.032 124.176 149.438C122.959 153.843 123.077 158.51 124.515 162.849C125.469 165.73 126.982 168.394 128.967 170.691C130.952 172.987 133.37 174.87 136.082 176.233C138.795 177.595 141.75 178.41 144.778 178.631C147.806 178.852 150.848 178.474 153.73 177.52ZM143.13 145.53C145.12 144.872 147.26 144.818 149.28 145.375C151.301 145.932 153.11 147.075 154.481 148.66C155.851 150.245 156.72 152.201 156.978 154.28C157.236 156.359 156.871 158.467 155.931 160.339C154.99 162.211 153.515 163.762 151.692 164.796C149.869 165.83 147.781 166.3 145.69 166.147C143.6 165.995 141.602 165.226 139.949 163.939C138.296 162.651 137.062 160.902 136.403 158.914C135.52 156.247 135.732 153.339 136.994 150.83C138.255 148.32 140.463 146.413 143.13 145.53Z" fill="#723E30"/>
<path d="M160.59 198.222C165.319 196.648 169.752 194.295 173.705 191.262L176.209 189.255C184.558 181.889 189.874 171.687 191.127 160.627C192.379 149.566 189.479 138.435 182.987 129.39C176.496 120.345 166.876 114.031 155.993 111.672C145.109 109.313 133.737 111.076 124.08 116.621C114.423 122.165 107.17 131.095 103.725 141.68C100.281 152.266 100.891 163.752 105.437 173.914C109.984 184.075 118.142 192.188 128.332 196.679C138.522 201.17 150.017 201.72 160.59 198.222ZM133.289 115.825C141.156 113.221 149.619 113.007 157.608 115.21C165.597 117.414 172.753 121.936 178.171 128.204C183.589 134.472 187.026 142.206 188.046 150.426C189.067 158.647 187.626 166.985 183.905 174.387C180.184 181.789 174.351 187.922 167.143 192.01C159.935 196.099 151.676 197.959 143.41 197.355C135.145 196.752 127.244 193.713 120.706 188.621C114.169 183.53 109.289 176.615 106.684 168.751C104.953 163.53 104.269 158.019 104.67 152.534C105.071 147.048 106.549 141.695 109.019 136.781C111.49 131.866 114.904 127.486 119.069 123.89C123.233 120.294 128.065 117.554 133.289 115.825Z" fill="#723E30"/>
<path d="M308.315 53.8457L304.398 86.1956L304.019 89.3188L302.896 98.5952L302.58 101.204C301.341 111.843 297.26 121.951 290.764 130.469C289.912 131.588 289.044 132.695 288.113 133.754C287.252 134.733 286.327 135.657 285.4 136.581C285.08 136.899 284.789 137.243 284.461 137.555L283.704 138.275L254.802 165.763C255.884 166.298 256.87 167.007 257.723 167.861L259.569 169.758C259.721 169.914 259.831 170.098 259.972 170.261L284.538 146.898L286.354 145.17L289.167 142.496L289.187 142.475C290.183 141.526 291.109 140.516 292.041 139.51C301.658 129.159 307.724 116.013 309.36 101.981L309.623 99.806L310.742 90.5648L311.116 87.4808L315.084 54.7139L308.315 53.8457Z" fill="#723E30"/>
<path d="M227.582 183.035L222.448 188.03L218.364 192.006L213.543 196.697C212.053 198.187 211.204 200.2 211.176 202.307C211.147 204.413 211.943 206.448 213.392 207.978L216.882 211.56L218.386 213.104C218.573 213.277 218.769 213.441 218.972 213.594C220.401 214.823 222.22 215.505 224.105 215.517C224.454 215.507 224.801 215.474 225.146 215.419C226.849 215.207 228.438 214.448 229.672 213.255L231.179 211.788L243.204 200.087L239.03 195.571L238.488 194.985L237.432 193.842L237.084 193.466L236.377 192.701L232.064 188.035L231.746 187.69L230.689 186.547L230.407 186.242L229.635 185.406L228.202 183.856L228.296 183.77L227.582 183.035Z" fill="#723E30"/>
<path d="M246.587 193.525L250.359 189.855L257.19 183.207C258.227 182.194 258.966 180.916 259.328 179.512C259.69 178.109 259.661 176.633 259.244 175.245C258.939 174.202 258.42 173.234 257.72 172.403C257.589 172.246 257.486 172.075 257.341 171.926L255.494 170.03C254.16 168.692 252.399 167.864 250.518 167.69C250.269 167.667 250.024 167.618 249.775 167.618C247.698 167.635 245.707 168.444 244.207 169.88L234.248 179.571L231.995 181.763L231.907 181.849L231.95 181.895L232.594 182.593L233.355 183.416L233.648 183.733L234.704 184.876L238.743 189.245L239.336 189.887L240.391 191.029L240.563 191.214L241.447 192.171L244.54 195.517L246.587 193.525Z" fill="#723E30"/>
<path d="M312.824 -9.26126L307.565 8.42517L307.572 -13.1946L307.574 -16.3645L307.575 -19.5261C306.626 -19.3595 305.756 -18.894 305.091 -18.1976C304.426 -17.5012 304.001 -16.6105 303.879 -15.6557L303.866 -15.5483L303.453 -12.197L300.702 10.1497L301.37 10.2319V9.99945L310.358 11.1046L311.9 11.2943L313.445 11.4841L320.218 12.3166L321.762 12.5063L323.305 12.6966L330.766 13.6137L330.717 13.8413L333.199 14.1468L336.248 -10.6147L336.376 -11.6571C336.509 -12.8427 336.172 -14.0331 335.437 -14.9734C334.702 -15.9136 333.629 -16.529 332.446 -16.6877L326.945 -17.3644L325.402 -17.5541L323.858 -17.7439L317.085 -18.5769L315.647 -18.7538L315.467 -18.1498L315.192 -17.2266L314.257 -14.08L312.824 -9.26126Z" fill="#723E30"/>
<path d="M307.143 50.5621L308.689 50.7602L315.459 51.6275L317.001 51.8257L318.543 52.0238L319.287 52.1206L326.965 16.5119L327.013 16.283L322.93 15.7854L321.388 15.5917L319.842 15.4024L313.896 14.6716L313.86 14.9005L309.627 43.0071L309.2 45.8424L309.037 34.9194L308.87 23.3933L308.733 14.2709V14.0376L304.482 13.5137L304.478 13.747L304.46 50.2143L305.606 50.364L307.143 50.5621Z" fill="#723E30"/>
<path d="M347.244 47.1453C349.249 47.1463 351.203 46.5119 352.826 45.3332C354.448 44.1546 355.654 42.4923 356.272 40.5853C356.89 38.6782 356.887 36.6246 356.264 34.7193C355.641 32.814 354.43 31.1552 352.804 29.9811C351.179 28.807 349.223 28.1781 347.217 28.1846C345.212 28.1912 343.26 28.8329 341.642 30.0177C340.025 31.2024 338.824 32.8692 338.214 34.7785C337.603 36.6879 337.614 38.7414 338.244 40.6444C338.869 42.5365 340.076 44.1832 341.691 45.3504C343.307 46.5176 345.25 47.1456 347.244 47.1453Z" fill="#723E30"/>
</g>
<defs>
<clipPath id="clip0_504_568">
<rect width="381" height="335" fill="white" transform="translate(0 -33)"/>
</clipPath>
</defs>
</svg>
