<svg width="144" height="45" viewBox="0 0 144 45" fill="none" xmlns="http://www.w3.org/2000/svg">
<path d="M20.7594 17.494C24.6485 21.1204 25.6626 26.2732 25.6626 26.2732C25.6626 26.2732 20.3738 25.5446 16.4848 21.9182C12.5957 18.2918 11.5801 13.1405 11.5801 13.1405C11.5801 13.1405 16.8703 13.8675 20.7594 17.494Z" fill="#B2805C"/>
<path d="M29.0731 16.8046C30.018 20.54 28.5813 24.1064 28.5813 24.1064C28.5813 24.1064 25.6136 21.6159 24.6702 17.879C23.7253 14.1436 25.162 10.5771 25.162 10.5771C25.162 10.5771 28.1283 13.0692 29.0731 16.8046Z" fill="#B2805C"/>
<path d="M35.7931 18.6163C34.8059 22.3411 31.8089 24.7994 31.8089 24.7994C31.8089 24.7994 30.4136 21.2185 31.4027 17.493C32.3899 13.7682 35.3869 11.3098 35.3869 11.3098C35.3869 11.3098 36.7802 14.8914 35.7931 18.6163Z" fill="#B2805C"/>
<path d="M19.2946 32.9966C15.8633 34.8546 14.1769 38.3139 14.1769 38.3139C14.1769 38.3139 18.0535 38.7596 21.485 36.8995C24.9163 35.0415 26.6028 31.5822 26.6028 31.5822C26.6028 31.5822 22.7259 31.1385 19.2946 32.9966Z" fill="#B2805C"/>
<path d="M18.3965 26.3017C22.3059 26.5765 25.3108 29.0209 25.3108 29.0209C25.3108 29.0209 21.9814 31.0213 18.0737 30.7476C14.1643 30.4728 11.1593 28.0284 11.1593 28.0284C11.1593 28.0284 14.4889 26.028 18.3965 26.3017Z" fill="#B2805C"/>
<path d="M143 29.7613C143 29.7613 126.932 17.441 84.2127 29.7613C41.4937 42.0816 33.6554 29.7613 33.6554 29.7613" stroke="#B2805C" stroke-width="2" stroke-linecap="round"/>
<path d="M142.61 32.1585C142.61 32.1585 127.717 19.4994 83.8221 32.1585C39.9273 44.8177 32.4809 31.6879 32.4809 31.6879" stroke="#B2805C" stroke-linecap="round"/>
<path d="M27.0247 29.9955C25.742 28.8625 25.6611 26.8787 26.8448 25.5855C28.0285 24.2923 30.0451 24.1612 31.3277 25.2942C32.6103 26.4272 32.6912 28.411 31.5076 29.7042C30.3239 30.9974 28.3073 31.1285 27.0247 29.9955Z" fill="#B2805C"/>
</svg>
