<svg width="144" height="45" viewBox="0 0 144 45" fill="none" xmlns="http://www.w3.org/2000/svg">
<g id="Group 3632">
<g id="Group">
<path id="Vector" d="M123.242 17.495C119.353 21.1215 118.339 26.2744 118.339 26.2744C118.339 26.2744 123.627 25.5459 127.516 21.9194C131.405 18.2929 132.421 13.1415 132.421 13.1415C132.421 13.1415 127.131 13.8686 123.242 17.495Z" fill="#B2805C"/>
<path id="Vector_2" d="M114.928 16.8052C113.983 20.5406 115.42 24.1071 115.42 24.1071C115.42 24.1071 118.388 21.6166 119.331 17.8796C120.276 14.1442 118.839 10.5776 118.839 10.5776C118.839 10.5776 115.873 13.0697 114.928 16.8052Z" fill="#B2805C"/>
<path id="Vector_3" d="M108.208 18.6164C109.195 22.3413 112.192 24.7996 112.192 24.7996C112.192 24.7996 113.587 21.2186 112.598 17.4931C111.611 13.7682 108.614 11.3098 108.614 11.3098C108.614 11.3098 107.221 14.8915 108.208 18.6164Z" fill="#B2805C"/>
<path id="Vector_4" d="M124.706 32.9971C128.138 34.8552 129.824 38.3145 129.824 38.3145C129.824 38.3145 125.948 38.7602 122.516 36.9001C119.085 35.042 117.398 31.5827 117.398 31.5827C117.398 31.5827 121.275 31.139 124.706 32.9971Z" fill="#B2805C"/>
<path id="Vector_5" d="M125.604 26.3013C121.695 26.5761 118.69 29.0206 118.69 29.0206C118.69 29.0206 122.02 31.0209 125.927 30.7473C129.837 30.4724 132.842 28.028 132.842 28.028C132.842 28.028 129.512 26.0276 125.604 26.3013Z" fill="#B2805C"/>
</g>
<path id="Vector 29" d="M1.00061 29.7609C1.00061 29.7609 17.0692 17.4404 59.7882 29.7609C102.507 42.0815 110.346 29.7609 110.346 29.7609" stroke="#B2805C" stroke-width="2" stroke-linecap="round"/>
<path id="Vector 30" d="M1.39166 32.1576C1.39166 32.1576 16.2845 19.4983 60.1793 32.1576C104.074 44.817 111.52 31.6871 111.52 31.6871" stroke="#B2805C" stroke-linecap="round"/>
<path id="Vector_6" d="M116.977 29.9961C118.26 28.8631 118.341 26.8792 117.157 25.586C115.973 24.2928 113.957 24.1617 112.674 25.2947C111.392 26.4277 111.311 28.4116 112.494 29.7048C113.678 30.998 115.695 31.1292 116.977 29.9961Z" fill="#B2805C"/>
</g>
</svg>
