<svg width="208" height="204" viewBox="0 0 208 204" fill="none" xmlns="http://www.w3.org/2000/svg">
<g id="Object" opacity="0.3" clip-path="url(#clip0_504_1305)">
<path id="Vector" d="M108.176 103.312C107.27 101.167 106.957 98.8486 106.949 96.5679C105.769 99.0222 106.22 102.476 107.445 104.895C108.086 106.162 109.225 107.539 110.615 107.569C111.467 107.588 112.159 107.023 112.505 106.183C110.68 107.365 108.983 105.222 108.176 103.312Z" fill="#B2805C"/>
<path id="Vector_2" d="M131.009 58.6057C123.05 49.377 113.672 45.1238 104.601 46.6295C93.7797 48.426 85.1172 56.0906 80.5668 67.3959C79.4148 70.2665 78.4675 73.2151 77.7321 76.2196C73.8599 78.8172 69.761 81.0596 65.4852 82.9195C64.0221 82.8316 62.5538 82.9077 61.1076 83.1464C60.6459 83.223 60.17 83.3233 59.6134 83.4609L33.6459 88.5515C21.6013 90.551 13.5609 102.774 15.723 115.798C17.885 128.821 29.4432 137.79 41.4333 135.798L44.0283 135.47L56.1121 164.335C57.1029 167.266 60.3964 169.135 63.6419 168.596C63.6702 168.592 63.6986 168.586 63.7265 168.579L70.4488 167.042C71.1697 166.878 71.8332 166.523 72.3701 166.014C72.5355 165.906 72.6928 165.786 72.8408 165.655C76.3022 162.594 76.5693 162.17 76.7122 161.943C77.1614 161.239 77.3858 160.414 77.3558 159.58C77.3258 158.745 77.0426 157.939 76.544 157.269L72.5792 151.899C70.8451 149.552 69.4971 146.942 68.5862 144.17L64.8581 132.831L67.3006 132.522C67.96 132.486 68.617 132.415 69.269 132.31C70.7166 132.068 72.1318 131.66 73.4868 131.096C78.7841 131.713 83.9076 133.107 88.3996 134.698C89.6399 136.497 90.9778 138.227 92.4074 139.88C101.027 149.822 109.869 153.886 122.07 151.861C131.141 150.355 138.642 143.3 143.192 131.995C147.558 121.149 148.7 107.568 146.407 93.7554C144.114 79.9426 138.645 67.4594 131.009 58.6057ZM87.9476 110.676L102.004 106.783L87.4071 107.642L95.4351 105.095L86.6866 104.971C86.6614 104.833 86.6377 104.694 86.6132 104.556L92.206 102.767L86.2245 102.147C86.2006 101.983 86.1771 101.819 86.1542 101.655L90.6346 100.176L85.8672 99.35C85.8473 99.169 85.828 98.9881 85.8091 98.8074L89.8307 97.5147L85.615 96.6172C85.6007 96.4232 85.5887 96.2301 85.5759 96.0366L89.3823 94.8131L85.4674 93.9798C85.4602 93.7951 85.4526 93.6103 85.4468 93.4262L103.913 93.3044C102.459 95.5672 101.851 98.9446 102.46 102.611C102.751 104.447 103.361 106.217 104.264 107.842L88.0461 111.044C88.0135 110.921 87.9797 110.8 87.9476 110.676ZM111.002 109.504C108.93 109.848 106.07 106.91 105.279 102.143C104.487 97.3764 106.244 93.6716 108.317 93.3276C110.389 92.9836 113.249 95.9219 114.04 100.689C114.832 105.455 113.074 109.16 111.002 109.504ZM91.8406 73.7195C90.3977 74.7396 88.9418 75.7473 87.4365 76.678C90.1278 73.8912 93.0813 71.3464 96.034 68.8306C99.9142 65.5246 103.959 62.3709 108.13 59.4235C109.573 58.4037 111.029 57.3962 112.535 56.4666C109.846 59.2555 106.891 61.7989 103.939 64.3157C100.06 67.6224 96.0107 70.7716 91.8406 73.7195ZM90.2794 68.8415C91.9916 66.3376 94.1413 64.0946 96.3066 61.9823C98.4699 59.8718 100.778 57.7826 103.329 56.1465C101.62 58.6526 99.4683 60.8942 97.3021 63.0057C95.138 65.1152 92.8283 67.2026 90.2794 68.8415ZM95.9505 129.557L104.095 133.194L93.9265 125.145L113.301 132.172L92.5574 120.739L110.55 124.592L94.9958 117.92L112.129 112.196C112.219 112.165 112.305 112.126 112.386 112.078C115.856 110.811 117.795 105.857 116.859 100.221C116.658 98.9898 116.319 97.7853 115.85 96.6298L134.135 90.1599L113.582 92.9273C113.073 92.3532 112.489 91.8493 111.846 91.429L134.2 82.8776C133.768 81.3683 133.294 79.8738 132.777 78.394L110.736 87.6694L131.6 75.2498C130.047 71.3465 128.124 67.6012 125.856 64.0655C125.816 64.0034 125.774 63.9432 125.734 63.8815L104.297 75.6137L124.522 62.1544C123.487 60.7662 122.364 59.446 121.217 58.1446C130.105 65.008 137.502 78.499 140.206 94.7847C144.396 120.024 135.75 142.559 120.934 145.019C111.96 146.508 102.75 140.295 95.9505 129.557ZM58.8092 163.39C58.7971 163.354 58.7836 163.317 58.7684 163.281L46.9697 135.097L47.6971 135.005L50.856 140.13L50.0885 134.702L51.0442 134.581L54.1294 139.586L53.3799 134.285L54.3913 134.157L57.4029 139.043L56.6712 133.868L57.3963 133.776L62.318 148.745C63.2354 151.538 64.5931 154.165 66.3396 156.529L70.5579 162.243C70.6845 162.414 70.7664 162.614 70.7963 162.825C70.8261 163.036 70.803 163.251 70.729 163.451C70.655 163.651 70.5324 163.83 70.3723 163.97C70.2122 164.111 70.0196 164.21 69.8119 164.257L63.1352 165.784C61.497 166.036 59.3797 165.143 58.8092 163.39ZM63.368 133.908C64.6248 137.076 65.7259 140.309 66.8265 143.534C67.58 145.741 68.3746 147.89 69.4964 149.942C70.5628 151.893 71.8856 153.663 73.1703 155.472C74.3726 157.165 76.0188 158.938 75.4255 161.173C75.4328 159.157 74.1077 157.829 72.9384 156.332C71.5798 154.592 70.2014 152.845 69.0889 150.935C66.8425 147.077 65.7316 142.609 64.5397 138.341C64.1287 136.869 63.7276 135.393 63.368 133.908ZM35.552 104.989C36.2341 100.475 37.8584 96.2822 40.8474 92.7743C40.1777 93.2623 39.5412 93.7942 38.9421 94.3665C35.7534 97.4515 33.8098 101.265 32.6904 105.517C33.3725 101.003 34.9969 96.8103 37.9859 93.3023C37.3163 93.7904 36.6797 94.3223 36.0805 94.8947C32.8919 97.9796 30.9481 101.793 29.8288 106.045C30.5109 101.531 32.1353 97.3385 35.1243 93.8305C34.4546 94.3186 33.8181 94.8505 33.2189 95.4229C30.0303 98.5078 28.0867 102.321 26.9672 106.573C27.6493 102.059 29.2737 97.8666 32.2628 94.3587C31.5931 94.8467 30.9565 95.3787 30.3573 95.9511C27.1687 99.0359 25.2249 102.85 24.1056 107.101C24.7877 102.588 26.4122 98.3947 29.4012 94.8868C28.7315 95.3749 28.0949 95.9069 27.4956 96.4793C24.307 99.5643 22.3636 103.378 21.244 107.63C21.9264 103.114 23.5517 98.9193 26.5431 95.4106C27.233 94.6069 27.9831 93.857 28.7869 93.1672C30.4684 92.2833 32.2806 91.674 34.1546 91.3626L54.6293 87.3493C53.2513 88.16 48.5517 91.7905 47.5269 92.7819C44.3383 95.8666 42.3944 99.6803 41.2752 103.932C41.9571 99.4184 43.5817 95.2254 46.5708 91.7177C45.9011 92.2058 45.2645 92.7377 44.6653 93.3101C41.4767 96.395 39.533 100.208 38.4136 104.46C39.0955 99.9467 40.7202 95.7537 43.709 92.246C43.0394 92.7341 42.4029 93.266 41.8037 93.8383C38.6151 96.9231 36.6712 100.737 35.552 104.989ZM79.8146 124.162C80.455 125.126 81.1564 126.048 81.9146 126.922C80.2478 125.777 78.7195 124.442 77.3603 122.945C74.8001 120.111 72.9403 116.823 71.5079 113.3C72.5497 117.191 74.1122 120.839 76.451 124.136C77.0606 124.992 77.7223 125.811 78.4324 126.586C76.7911 125.54 75.2769 124.307 73.92 122.912C71.2942 120.204 69.3908 116.987 67.9323 113.529C69.0157 117.375 70.6463 120.974 73.0928 124.155C73.6747 124.911 74.2987 125.633 74.9621 126.318C73.4813 125.451 72.1003 124.424 70.8443 123.256C67.9824 120.585 65.9128 117.325 64.3567 113.757C65.4961 117.621 67.2262 121.224 69.8354 124.322C70.3638 124.949 70.9178 125.54 71.4933 126.102C69.9857 125.298 68.5792 124.318 67.3033 123.183C64.4332 120.618 62.35 117.477 60.781 113.986C61.9706 117.853 63.7869 121.46 66.5389 124.463C67.001 124.967 67.4797 125.444 67.9722 125.899C66.4944 125.173 65.1098 124.272 63.8488 123.213C60.9167 120.748 58.802 117.67 57.2054 114.214C58.4582 118.132 60.3864 121.766 63.3225 124.693C63.6793 125.049 64.0437 125.39 64.4158 125.717C63.0211 125.083 61.7054 124.288 60.4957 123.348C57.4471 120.977 55.2701 117.905 53.6298 114.443C54.8973 118.268 56.8253 121.774 59.751 124.592C60.1137 124.942 60.4847 125.276 60.8642 125.593C59.4847 125.016 58.1812 124.271 56.983 123.375C53.9081 121.077 51.7166 118.101 50.0541 114.672C51.3599 118.483 53.3304 121.806 56.259 124.597C56.7127 125.029 57.1856 125.431 57.6721 125.809C52.2237 122.993 48.1532 117.424 47.0293 110.653C45.5819 101.934 49.5521 93.3429 56.5779 89.5288C63.9583 87.9608 70.9181 84.632 76.7218 81.095C75.3904 89.0473 75.3945 97.1659 76.7339 105.117C77.8772 112.111 79.9882 118.912 83.0062 125.325C82.187 124.567 81.417 123.759 80.701 122.903C78.2477 119.965 76.4697 116.624 75.0835 113.072C76.0809 117.013 77.5605 120.761 79.8146 124.162ZM84.8501 117.199C82.351 110.043 80.9274 102.556 80.6259 94.9819C80.2441 85.9357 81.6029 76.5203 85.3615 68.2342C88.8523 60.5385 94.8316 53.4107 103.358 51.3697C104.008 51.2141 104.67 51.1222 105.329 51.0134C101.821 51.8903 98.627 53.3662 95.8451 55.7093C92.5894 58.4513 90.0659 61.9983 88.1618 65.7829C84.1705 73.7155 82.6569 82.7408 82.6407 91.5601C82.6428 98.8657 83.6824 106.134 85.7284 113.147C88.2029 121.668 92.1837 130.012 98.0928 136.698C103.562 142.887 110.923 147.776 119.449 147.614C120.081 147.602 120.712 147.53 121.342 147.477C117.549 148.109 113.874 147.907 110.212 146.663C106.105 145.269 102.439 142.86 99.2454 139.954C92.5616 133.871 87.8308 125.669 84.8501 117.199ZM144.861 120.736C144.198 124.071 143.325 127.375 142.014 130.519C140.883 133.208 139.482 135.776 137.832 138.183C140.815 133.411 142.785 128.3 143.976 122.799C145.279 116.779 145.65 110.527 145.37 104.381C144.796 91.7732 141.526 79.0437 135.286 68.036C132.196 62.5851 128.237 57.8439 123.277 54.0158C127.755 57.2244 131.574 61.2645 134.526 65.9159C137.923 71.2032 140.413 76.9114 142.322 82.8882C144.268 89.055 145.463 95.4343 145.879 101.887C146.3 108.181 146.093 114.538 144.861 120.736Z" fill="#B2805C"/>
<path id="Vector_3" d="M138.517 59.9634C139.907 59.2166 141.248 58.3746 142.569 57.5133C146.14 55.1864 149.51 52.5894 152.856 49.9561C151.422 49.4789 149.989 49.0015 148.549 48.5458C151.72 45.7894 154.841 42.9197 157.622 39.7688C155.838 40.7755 154.115 41.8943 152.422 43.0456C149.443 45.0708 146.583 47.2478 143.719 49.429C145.108 49.9206 146.497 50.4082 147.892 50.8771C147.592 51.1349 147.287 51.3874 146.988 51.6475C144.016 54.2354 141.067 56.9507 138.517 59.9634Z" fill="#B2805C"/>
<path id="Vector_4" d="M147.792 75.3622C149.383 75.0708 150.955 74.669 152.515 74.2423C156.587 73.1286 160.554 71.7034 164.51 70.2378C163.291 69.3437 162.074 68.4496 160.843 67.5739C164.707 65.9234 168.558 64.1499 172.171 62.0044C170.165 62.4151 168.181 62.9512 166.216 63.5274C162.76 64.5409 159.37 65.7351 155.975 66.9323C157.146 67.8265 158.318 68.7166 159.503 69.5912C159.137 69.7443 158.769 69.891 158.405 70.0468C154.782 71.5977 151.143 73.2774 147.792 75.3622Z" fill="#B2805C"/>
<path id="Vector_5" d="M167.858 90.5511C172.042 90.173 176.253 89.6738 180.352 88.7476C178.316 88.5192 176.265 88.4175 174.218 88.3595C170.618 88.2575 167.024 88.3476 163.426 88.4393C164.262 89.6491 165.101 90.8553 165.956 92.0506C164.161 92.2017 162.368 92.3901 160.58 92.6156C158.044 92.9104 155.526 93.3505 153.041 93.9338C154.644 94.1475 156.264 94.2503 157.879 94.3256C162.097 94.5223 166.31 94.3902 170.524 94.2162C169.641 92.9899 168.759 91.7638 167.858 90.5511Z" fill="#B2805C"/>
<path id="Vector_6" d="M171.364 118.302C170.803 116.898 170.243 115.495 169.662 114.101C173.814 114.745 178.02 115.278 182.222 115.37C180.302 114.656 178.335 114.062 176.363 113.511C172.894 112.542 169.385 111.761 165.871 110.98C166.391 112.357 166.914 113.73 167.455 115.096C165.675 114.809 163.891 114.554 162.101 114.345C159.569 114.019 157.02 113.837 154.467 113.803C155.971 114.397 157.518 114.889 159.067 115.352C163.112 116.562 167.232 117.452 171.364 118.302Z" fill="#B2805C"/>
<path id="Vector_7" d="M176.78 140.255C175.097 139.088 173.34 138.024 171.566 137.001C168.446 135.201 165.241 133.574 162.03 131.946C162.192 133.408 162.357 134.868 162.543 136.326C160.89 135.606 159.225 134.917 157.543 134.27C155.171 133.326 152.746 132.518 150.282 131.851C151.591 132.8 152.968 133.66 154.354 134.493C157.972 136.669 161.742 138.553 165.534 140.401C165.339 138.903 165.145 137.405 164.928 135.91C168.79 137.564 172.733 139.124 176.78 140.255Z" fill="#B2805C"/>
</g>
<defs>
<clipPath id="clip0_504_1305">
<rect width="162.674" height="154.844" fill="white" transform="translate(55.9021 0.884766) rotate(20.92)"/>
</clipPath>
</defs>
</svg>
