<svg width="107" height="253" viewBox="0 0 107 253" fill="none" xmlns="http://www.w3.org/2000/svg">
<g id="mic" style="mix-blend-mode:hard-light" opacity="0.2" clip-path="url(#clip0_504_583)">
<path id="Vector" d="M70.0745 93.4891C59.92 89.2192 49.209 86.4083 38.2621 85.1406L36.9412 91.4793C47.4878 92.86 57.7866 95.7165 67.5333 99.9646C70.8271 101.935 74.0273 96.0229 70.0745 93.4891Z" fill="#723E30"/>
<path id="Vector_2" d="M72.051 82.7899C61.991 78.5008 51.3568 75.6995 40.485 74.4746L39.1595 80.8347C49.6475 82.0883 59.8821 84.9314 69.5093 89.2657C72.8039 91.2365 76.0041 85.324 72.051 82.7899Z" fill="#723E30"/>
<path id="Vector_3" d="M74.0272 72.0912C64.0608 67.7865 53.5055 64.9899 42.7107 63.7939L41.3795 70.1829C51.8075 71.316 61.9782 74.1483 71.4861 78.5667C74.7804 80.5378 77.9806 74.6252 74.0272 72.0912Z" fill="#723E30"/>
<path id="Vector_4" d="M76.0041 61.3923C68.0938 57.9444 59.7958 55.4591 51.2894 53.99C51.1804 56.3004 50.2784 58.5032 48.7346 60.2295C57.3215 61.4955 65.6618 64.0717 73.4627 67.8678C76.757 69.8389 79.9569 63.9264 76.0041 61.3923Z" fill="#723E30"/>
<path id="Vector_5" d="M50.5514 49.4612C59.2159 50.6489 67.6246 53.2531 75.4392 57.1691C78.7333 59.1399 81.9335 53.2274 77.9806 50.6933C68.1963 46.373 57.8046 43.5768 47.1689 42.4023L46.6473 44.9058C48.3996 45.9738 49.7666 47.5688 50.5514 49.4612Z" fill="#723E30"/>
<path id="Vector_6" d="M79.957 39.9943C70.2618 35.6728 59.955 32.8713 49.4015 31.689L48.0486 38.1817C58.2884 38.9958 68.2672 41.8122 77.4158 46.4701C80.7102 48.4409 83.9104 42.5284 79.957 39.9943Z" fill="#723E30"/>
<path id="Vector_7" d="M81.9335 29.2958C72.3256 24.9782 62.1049 22.1706 51.635 20.9729L50.2747 27.4994C60.4494 28.2218 70.3637 31.0382 79.3924 35.7713C82.6868 37.7424 85.8869 31.8298 81.9335 29.2958Z" fill="#723E30"/>
<path id="Vector_8" d="M67.8236 268.412C87.0291 267.249 102.943 260.963 107.862 253.347C107.95 252.985 107.997 252.615 108 252.243C108 249.01 104.751 245.995 99.1477 243.441C91.1297 239.06 76.4757 235.823 58.9736 234.817L58.6593 235.812L56.7678 241.808V234.705L56.7046 234.702V227.693L57.0503 227.947C63.4112 219.615 67.7742 209.941 69.8049 199.667C71.8357 189.393 71.4802 178.792 68.7657 168.677C69.0065 168.713 69.2421 168.753 69.4837 168.788C74.0875 169.711 78.87 169.004 83.0072 166.789L82.9807 166.822L83.0849 166.744C84.3933 165.967 85.5782 164.999 86.6007 163.873C91.2944 159.752 98.8874 151.93 98.8874 144.439C98.8874 137.861 99.1991 121.478 99.4444 109.605L97.0615 109.595C95.332 109.614 93.6533 109.013 92.3312 107.901C91.0092 106.789 90.1319 105.24 89.8594 103.537C89.8176 103.303 89.814 103.054 89.7925 102.812C89.7702 102.563 89.7234 102.323 89.7234 102.066C89.7851 101.035 90.0007 100.02 90.3633 99.0524C90.9572 97.7135 91.9263 96.5742 93.1541 95.7713C94.3818 94.9685 95.816 94.5363 97.2842 94.5268C97.3506 94.5268 99.5782 94.5461 99.5782 94.5461L99.7348 94.548C99.7029 93.95 99.6099 93.3567 99.4575 92.7775L99.452 92.7741C98.6938 91.845 97.6049 91.244 96.4127 91.0968C96.2225 91.0656 96.0438 91.0057 95.8478 90.9929C94.8402 90.9388 93.833 91.1076 92.8985 91.4873C92.2512 91.7513 91.6442 92.1045 91.0953 92.5366C91.0504 92.5714 91.0111 92.6174 90.9665 92.653C90.1236 93.3217 89.4243 94.1528 88.9104 95.0968C89.1519 93.4548 89.9959 91.9607 91.2789 90.9037C93.3084 89.5354 95.7854 88.9918 98.2035 89.3841L98.2565 89.3697C97.9474 88.8876 97.5185 88.4934 97.0116 88.2252L98.889 79.2238C100.783 70.0037 99.7281 60.4235 95.8731 51.8328C92.0182 43.242 85.5575 36.0736 77.401 31.3374C77.0608 31.1515 76.6759 31.0626 76.2884 31.0805C76.026 31.0805 75.7624 31.1022 75.4969 31.1022C75.134 31.1156 74.7731 31.0443 74.4427 30.894C73.4794 30.4281 72.4948 28.869 71.49 28.4703C69.8329 27.8131 68.1379 27.2555 66.414 26.8006C65.6363 26.5952 64.8493 26.4098 64.0528 26.2444L61.2238 26.7838C60.9725 26.7318 60.7212 25.5564 60.4698 25.5109C58.6104 25.1713 56.724 25.0003 54.8337 25C54.331 25 53.8304 25.012 53.3317 25.0358C52.6399 25.0693 50.8226 26.2517 50.1397 26.3299C50.0299 26.3428 49.9194 26.3494 49.8089 26.3496C48.9003 26.3496 48.531 25.8745 47.7505 25.8745C47.5535 25.8766 47.3576 25.9031 47.1672 25.9535C44.6704 26.584 42.2599 27.5155 39.989 28.7275C38.6568 29.438 37.3765 31.368 36.1589 32.259C35.2653 32.9124 34.4054 32.4863 33.5837 33.2305C29.1311 37.2507 25.9318 42.4627 24.367 48.2453C24.2447 48.6973 24.7894 49.8088 24.9956 50.5776L24.6162 51.7237L23.2239 53.4615L22.2823 57.9758L22.679 61.4893L21.0639 63.8164L20.1174 68.3545L20.7449 70.7604L18.9213 74.0889L17.969 78.6535L18.5005 81.5206L16.7907 84.3032L15.8429 88.8457L16.5667 90.7915L14.7268 94.1979L13.7063 99.0898L14.3619 101.361L12.612 104.335L11.6261 109.063L13.2739 111.832L13.255 111.916L10.4531 114.684L9.42938 119.593C8.90501 122.435 9.07228 125.361 9.91715 128.126C10.762 130.89 12.2598 133.412 14.2847 135.479C15.58 154.854 28.3253 159.289 28.3253 159.289C28.3253 159.289 30.3263 159.945 33.7497 160.936C34.0082 161.011 34.2933 161.091 34.5678 161.17C36.0419 161.592 37.7386 162.062 39.6375 162.566C42.0886 163.217 44.8554 163.916 47.8782 164.626C47.8903 168.501 47.9202 178.229 47.9202 179.914C47.9627 180.589 48.1483 181.248 48.4646 181.846C48.781 182.445 49.221 182.97 49.7556 183.386C49.7556 183.386 41.6649 181.612 39.6375 181.031C39.5299 181 39.4263 180.97 39.3552 180.946C38.4039 180.458 37.6217 179.695 37.1099 178.758C36.5981 177.821 36.3803 176.752 36.4848 175.69C36.4848 173.626 36.5315 163.302 36.5315 163.302L34.5709 161.72L34.6596 177.26C34.8126 178.614 35.3685 179.891 36.2556 180.927C37.1427 181.963 38.3205 182.711 39.6375 183.074V234.637C11.0583 235.715 -11 242.68 -11 251.117C-10.9942 251.302 -10.9777 251.487 -10.9507 251.671H-11V261.024H-10.9693C-10.9774 261.14 -11 261.255 -11 261.371C-11 270.555 15.1335 278 47.3706 278C79.6077 278 105.741 270.555 105.741 261.371C105.741 261.255 105.719 261.14 105.71 261.024H105.741V260.478C95.8599 265.761 77.9866 268.965 67.8236 268.412ZM77.1046 244.702C80.0293 244.702 82.4004 245.971 82.4004 247.537C82.4004 249.102 80.0293 250.371 77.1046 250.371C74.1793 250.371 71.8082 249.102 71.8082 247.537C71.8082 245.971 74.1793 244.702 77.1046 244.702ZM71.9105 249.639C72.2223 250.188 72.6577 250.657 73.1825 251.01C73.7074 251.362 74.3072 251.589 74.9347 251.671C76.3604 252.017 77.8487 252.017 79.2745 251.671C79.9019 251.589 80.5017 251.362 81.0264 251.01C81.5512 250.657 81.9866 250.188 82.2983 249.639C82.3639 249.813 82.3985 249.996 82.4007 250.182C82.3826 250.474 82.3011 250.758 82.1618 251.015C82.0225 251.272 81.8287 251.496 81.5939 251.671C80.2622 252.549 78.701 253.017 77.1044 253.017C75.5079 253.017 73.9466 252.549 72.6149 251.671C72.3802 251.496 72.1864 251.272 72.0471 251.015C71.9077 250.758 71.8262 250.474 71.8082 250.182C71.8102 249.996 71.8449 249.813 71.9105 249.639ZM94.938 59.1009C96.6992 65.4363 96.9165 72.0997 95.5718 78.5358L93.6616 87.6924C93.3487 87.7284 93.0379 87.7809 92.7305 87.8496C92.3483 87.9473 91.9772 88.0841 91.6232 88.2577C92.0259 85.9436 93.2815 78.7668 94.1722 74.0808C94.815 69.1147 95.071 64.1064 94.938 59.1009ZM27.872 140.372C22.9516 137.077 19.5166 131.861 18.9659 121.739C18.829 119.021 15.0755 118.518 15.119 121.774C15.1668 125.791 15.836 129.778 17.1032 133.592C15.3305 131.905 14.0047 129.806 13.2444 127.483C12.4841 125.161 12.3131 122.686 12.7466 120.281L13.563 116.369L15.2111 114.74C17.8328 114.755 22.2802 114.863 27.7996 115.324L29.0618 109.268C24.6143 109.04 20.1577 109.053 15.7117 109.308L15.2111 108.467L15.8161 105.566L16.44 104.506C18.9701 104.439 23.8336 104.405 29.9897 104.816L31.2621 98.7097C26.5853 98.5354 21.9021 98.6763 17.2444 99.1316L17.1945 98.9587L17.9438 95.3673L18.5404 94.2628C21.1699 94.1284 26.0599 93.9892 32.1819 94.2971L33.4669 88.1308C28.7893 88.0225 24.1103 88.2748 19.4717 88.8855L19.3589 88.582L19.9878 85.5672L20.959 83.9869C25.4245 83.681 29.9029 83.6078 34.376 83.7677L34.6197 82.5999C34.0237 81.2845 33.7129 79.8584 33.7078 78.4149C33.7078 78.1151 33.7665 77.8329 33.7915 77.5399C29.6467 77.5818 25.5122 77.9574 21.4281 78.6629L22.1362 75.2682L22.9833 73.7219C27.0258 73.3432 31.0851 73.1709 35.1452 73.2058C35.6592 72.3456 36.3039 71.57 37.0562 70.9067L37.8923 66.8961C33.0981 66.9001 28.3172 67.3982 23.6258 68.3825L23.5962 68.2687L24.2416 65.1754L25.4654 63.4117L25.4764 63.3958C29.8904 62.8969 34.3298 62.6562 38.772 62.6751L40.1107 56.2495C35.2564 56.301 30.4251 56.923 25.7168 58.1027L26.3766 54.9397L27.7164 53.2671L27.888 53.0531C32.2264 52.4759 36.596 52.1624 40.9726 52.1145L42.3355 45.5754C37.5183 45.6701 32.7338 46.3885 28.1023 47.7127C29.2039 44.3404 30.9434 41.2099 33.2266 38.4904C33.5573 38.8251 33.9927 39.0373 34.4607 39.0918C35.3689 39.1431 36.2686 38.892 37.0182 38.3782C37.7678 37.8643 38.325 37.1167 38.6022 36.2527C38.9168 35.2679 39.3358 34.3193 39.8521 33.4231C39.9864 33.2802 40.1273 33.1403 40.2592 32.9982C40.6627 32.5294 41.1071 32.0972 41.5873 31.7068C43.0341 30.9525 44.5436 30.3242 46.0989 29.829C44.8877 31.0117 43.8315 32.3424 42.9554 33.7896C41.2612 36.7458 43.2611 37.7548 44.8848 38.1067C46.5085 38.4585 47.8732 37.0741 48.4381 35.3848C49.3181 32.9103 50.7973 30.6909 52.7443 28.9234C52.8821 28.8564 53.0172 28.8023 53.157 28.733C53.3554 28.6349 53.6529 28.4878 53.858 28.3955C54.1823 28.3843 54.5075 28.3786 54.8337 28.3785C55.9329 28.3827 57.031 28.4516 58.122 28.5849C56.658 29.4523 55.3028 30.4906 54.0852 31.6777C50.6497 34.8919 52.344 37.9424 53.5206 38.5289C54.0016 38.7821 54.53 38.9333 55.0725 38.9729C55.615 39.0125 56.1598 38.9396 56.6727 38.7588C57.1855 38.5781 57.6553 38.2934 58.0523 37.9227C58.4494 37.5519 58.7651 37.1033 58.9797 36.6048C60.249 33.7906 62.3944 31.4594 65.0975 29.957C65.2467 29.9946 65.3986 30.0273 65.5466 30.0663C66.4171 30.2963 67.2808 30.5633 68.1371 30.8503C65.7211 31.9711 63.7907 33.9219 62.699 36.3456C62.47 37.3666 62.9918 39.8554 64.3309 40.3286C65.3814 40.8503 66.5666 41.0396 67.7279 40.8711C68.8893 40.7026 69.9713 40.1844 70.8291 39.3859C72.2838 37.4538 74.0814 35.804 76.1328 34.5184C83.1895 38.722 88.8407 44.9139 92.3745 52.3141C92.6986 55.7606 92.4572 59.2367 91.6599 62.6057C91.561 63.0463 81.6758 106.941 76.933 129.994C76.8052 130.615 76.6626 131.225 76.5051 131.825C76.017 133.784 75.0619 135.597 73.7208 137.11C72.3798 138.623 70.6924 139.791 68.8019 140.515C66.9059 141.136 64.9001 141.354 62.9145 141.152C60.9289 140.951 59.0078 140.336 57.2759 139.347C55.6822 138.52 54.2913 137.352 53.2026 135.926C52.1139 134.501 51.3542 132.854 50.9779 131.102C50.5356 129.01 50.2619 126.886 50.1594 124.751C50.1261 124.108 49.8931 123.492 49.4925 122.987C49.0919 122.482 48.5437 122.114 47.9239 121.933L47.8383 121.909C47.3722 121.773 46.8806 121.748 46.4031 121.837C45.9256 121.925 45.4755 122.124 45.0892 122.417C44.7029 122.711 44.3912 123.091 44.1791 123.526C43.967 123.962 43.8605 124.441 43.8681 124.925C44.0814 132.181 46.503 139.2 50.8113 145.051C43.9812 141.638 39.0403 136.013 38.3469 123.273C38.3138 122.63 38.0808 122.013 37.6802 121.508C37.2796 121.004 36.7313 120.636 36.1114 120.456L36.0262 120.431C35.5669 120.325 35.0886 120.331 34.6324 120.45C34.1763 120.569 33.7559 120.797 33.4075 121.114C33.0591 121.43 32.7931 121.827 32.6323 122.269C32.4715 122.711 32.4207 123.185 32.4844 123.651C32.5931 130.049 34.4179 136.301 37.7692 141.759C31.8448 138.423 27.6047 133.061 26.9784 121.552C26.837 118.747 21.9426 118.113 21.9872 121.473C21.986 128.221 24.0379 134.811 27.872 140.372ZM85.2593 127.974L83.7893 135.021C83.3787 137.008 82.3928 142.686 73.1349 145.373C78.5475 142.89 82.7184 134.527 85.2593 127.974ZM37.8493 150.773C35.5627 149.738 33.667 148.003 32.438 145.82C32.6599 145.888 33.0144 145.995 33.3142 146.083C38.9564 148.29 44.8911 149.665 50.9312 150.165C55.6099 150.636 60.325 150.622 65.0006 150.121C65.124 150.133 65.2478 150.146 65.3698 150.146C65.4868 150.147 65.6037 150.141 65.72 150.129C78.081 148.875 84.6026 143.305 86.6479 137.331C86.5466 142.412 86.4173 146.98 86.252 150.359C86.3144 152.309 85.9683 154.251 85.2358 156.06C84.5033 157.869 83.4005 159.506 81.9978 160.867C80.5951 162.227 78.9233 163.281 77.0892 163.961C75.2551 164.641 73.299 164.932 71.3457 164.816C75.3851 164.279 79.0455 162.165 81.5218 158.938C57.8033 155.935 42.3672 153.213 37.8493 150.773ZM56.0148 177.582C55.805 177.626 55.5912 177.649 55.3768 177.65C54.4769 177.599 53.6306 177.207 53.0116 176.553C52.3925 175.9 52.0476 175.035 52.0476 174.137C52.0476 173.238 52.3925 172.373 53.0116 171.72C53.6306 171.067 54.4769 170.674 55.3768 170.623C55.5912 170.625 55.805 170.647 56.0148 170.691C55.2456 170.885 54.5631 171.329 54.0756 171.953C53.5881 172.577 53.3233 173.346 53.3233 174.137C53.3233 174.928 53.5881 175.696 54.0756 176.32C54.5631 176.945 55.2456 177.389 56.0148 177.582ZM55.1548 174.137C55.1501 173.555 55.289 172.98 55.5592 172.464C55.8294 171.948 56.2227 171.506 56.7046 171.176C57.2288 170.819 57.8486 170.626 58.4838 170.623C59.3838 170.674 60.2302 171.067 60.8493 171.72C61.4685 172.373 61.8134 173.238 61.8134 174.137C61.8134 175.036 61.4685 175.9 60.8493 176.554C60.2302 177.207 59.3838 177.599 58.4838 177.65C57.8486 177.647 57.2288 177.455 56.7046 177.097C56.2227 176.768 55.8294 176.326 55.5592 175.81C55.289 175.294 55.1501 174.719 55.1548 174.137ZM50.396 251.671L49.8028 251.99L49.8102 251.671C49.8199 251.224 49.8406 250.282 49.8703 248.94C49.9361 245.971 50.0437 241.118 50.1662 235.617L50.1911 234.508C50.5177 219.848 50.9323 201.434 50.9323 202.344C50.9323 203.254 51.3817 220.83 51.7358 234.539C51.745 234.903 51.7547 235.27 51.7639 235.629C51.9143 241.442 52.0436 246.415 52.1092 248.94C52.1386 250.066 52.1559 250.723 52.1559 250.723L50.396 251.671ZM52.2734 184.776C51.6945 184.233 51.233 183.578 50.9174 182.851C50.6018 182.123 50.4386 181.339 50.438 180.547V178.576C50.438 179.343 50.5895 180.103 50.884 180.812C51.1785 181.521 51.6101 182.165 52.1542 182.707C52.6983 183.25 53.3442 183.68 54.0551 183.974C54.766 184.267 55.5279 184.418 56.2974 184.418C56.4367 184.418 56.5673 184.387 56.7046 184.378C57.5727 184.32 58.417 184.07 59.1757 183.646C59.9344 183.221 60.5882 182.632 61.0892 181.923C61.4961 181.081 61.8286 180.205 62.0828 179.305C62.1227 179.064 62.1473 178.821 62.1562 178.576V179.046C62.3094 178.493 62.4556 177.91 62.5823 177.26C62.7693 176.301 62.958 175.354 63.145 174.432C65.9573 188.586 63.6769 203.276 56.7046 215.92V186.348C56.5673 186.358 56.4367 186.389 56.2974 186.389C54.7979 186.388 53.3566 185.81 52.2734 184.776Z" fill="#723E30"/>
<path id="Vector_9" d="M76.051 11.8865C76.8515 12.2624 77.4985 12.9008 77.8839 13.695C78.2693 14.4892 78.3699 15.3912 78.1688 16.2504L78.147 16.343C77.715 17.9897 76.6793 19.415 75.2446 20.3373C73.8099 21.2596 72.0804 21.6119 70.3979 21.3245L57.6974 19.981C57.6974 19.981 76.3333 23.8521 83.2513 27.794C83.5336 26.8083 87.9104 16.8133 76.051 11.8865Z" fill="#723E30"/>
<path id="Vector_10" d="M98.5578 71.8877L98.5583 71.7979C98.5583 71.7979 96.3501 71.7786 96.2843 71.7786C94.88 71.7853 93.5352 72.3445 92.5422 73.3346C91.5493 74.3247 90.9885 75.6657 90.9818 77.0659C90.954 78.4342 91.4412 79.7633 92.3474 80.7913C92.8209 81.2975 93.3969 81.6977 94.0372 81.9652C94.6775 82.2328 95.3675 82.3615 96.0615 82.343L98.4752 82.353L98.4759 82.258L98.4933 82.2601C98.7028 82.3014 98.9154 82.3258 99.1289 82.3331C99.2885 82.3245 99.4475 82.3063 99.6049 82.2784C99.9944 82.2354 100.376 82.1363 100.737 81.9844C101.63 81.5188 102.38 80.8197 102.906 79.9618C103.432 79.1039 103.714 78.1196 103.722 77.1142C103.73 76.1089 103.463 75.1202 102.951 74.2542C102.439 73.3882 101.7 72.6774 100.814 72.1979C100.455 72.0406 100.076 71.9355 99.6872 71.8858C99.5029 71.8511 99.3163 71.8296 99.1289 71.8215C98.991 71.83 98.8536 71.8459 98.7173 71.8691C98.6638 71.8746 98.6105 71.8795 98.5578 71.8877ZM99.6691 74.1669C100.12 74.3216 100.512 74.6115 100.792 74.997C101.234 75.611 101.47 76.3495 101.464 77.1056C101.458 77.8617 101.211 78.5964 100.758 79.2034C100.473 79.583 100.076 79.864 99.6224 80.007C99.2684 80.1179 98.887 80.1043 98.5418 79.9685L98.4943 79.9492C97.9755 79.6644 97.5436 79.245 97.2443 78.7354C96.945 78.2259 96.7895 77.6451 96.7941 77.0546C96.7988 76.4641 96.9634 75.8859 97.2707 75.3811C97.578 74.8763 98.0165 74.4637 98.5397 74.1871C98.583 74.1719 98.6231 74.1476 98.6675 74.1353C98.9967 74.0432 99.3464 74.0543 99.6691 74.1669Z" fill="#723E30"/>
</g>
<defs>
<clipPath id="clip0_504_583">
<rect width="119" height="253" fill="white" transform="translate(-12)"/>
</clipPath>
</defs>
</svg>
