<svg width="1512" height="527" viewBox="0 0 1512 527" fill="none" xmlns="http://www.w3.org/2000/svg">
<mask id="path-1-inside-1_504_1295" fill="white">
<path fill-rule="evenodd" clip-rule="evenodd" d="M132.839 41.9297C132.839 75.0668 105.976 101.93 72.8386 101.93C67.3563 101.93 62.0456 101.194 57 99.8171V444.042C62.0456 442.665 67.3563 441.93 72.8386 441.93C105.976 441.93 132.839 468.793 132.839 501.93C132.839 502.582 132.828 503.232 132.808 503.88H1381.89C1381.85 503.086 1381.84 502.287 1381.84 501.485C1381.84 468.594 1408.7 441.93 1441.84 441.93C1446.36 441.93 1450.76 442.426 1455 443.367V100.482C1450.76 101.43 1446.36 101.93 1441.84 101.93C1408.7 101.93 1381.84 75.0668 1381.84 41.9297C1381.84 35.3152 1382.91 28.9507 1384.89 23H129.791C131.768 28.9507 132.839 35.3152 132.839 41.9297Z"/>
</mask>
<path d="M57 99.8171L58.0534 95.9582L53 94.5788V99.8171H57ZM57 444.042H53V449.281L58.0534 447.901L57 444.042ZM132.808 503.88L128.81 503.752L128.678 507.88H132.808V503.88ZM1381.89 503.88V507.88H1386.05L1385.88 503.721L1381.89 503.88ZM1455 443.367L1454.13 447.272L1459 448.353V443.367H1455ZM1455 100.482H1459V95.4876L1454.13 96.5783L1455 100.482ZM1384.89 23L1388.68 24.2611L1390.43 19H1384.89V23ZM129.791 23V19H124.248L125.995 24.2611L129.791 23ZM72.8386 105.93C108.185 105.93 136.839 77.2759 136.839 41.9297H128.839C128.839 72.8576 103.767 97.9297 72.8386 97.9297V105.93ZM55.9466 103.676C61.3324 105.146 66.9971 105.93 72.8386 105.93V97.9297C67.7154 97.9297 62.7589 97.2427 58.0534 95.9582L55.9466 103.676ZM61 444.042V99.8171H53V444.042H61ZM58.0534 447.901C62.7589 446.617 67.7154 445.93 72.8386 445.93V437.93C66.9971 437.93 61.3324 438.713 55.9466 440.184L58.0534 447.901ZM72.8386 445.93C103.767 445.93 128.839 471.002 128.839 501.93H136.839C136.839 466.583 108.185 437.93 72.8386 437.93V445.93ZM128.839 501.93C128.839 502.54 128.829 503.147 128.81 503.752L136.805 504.007C136.828 503.317 136.839 502.625 136.839 501.93H128.839ZM1381.89 499.88H132.808V507.88H1381.89V499.88ZM1377.84 501.485C1377.84 502.34 1377.86 503.192 1377.89 504.039L1385.88 503.721C1385.85 502.979 1385.84 502.234 1385.84 501.485H1377.84ZM1441.84 437.93C1406.52 437.93 1377.84 466.357 1377.84 501.485H1385.84C1385.84 470.831 1410.88 445.93 1441.84 445.93V437.93ZM1455.87 439.462C1451.35 438.458 1446.65 437.93 1441.84 437.93V445.93C1446.07 445.93 1450.18 446.394 1454.13 447.272L1455.87 439.462ZM1451 100.482V443.367H1459V100.482H1451ZM1441.84 105.93C1446.66 105.93 1451.35 105.397 1455.87 104.385L1454.13 96.5783C1450.18 97.4624 1446.06 97.9297 1441.84 97.9297V105.93ZM1377.84 41.9297C1377.84 77.2759 1406.49 105.93 1441.84 105.93V97.9297C1410.91 97.9297 1385.84 72.8576 1385.84 41.9297H1377.84ZM1381.09 21.7389C1378.98 28.0912 1377.84 34.8813 1377.84 41.9297H1385.84C1385.84 35.7492 1386.84 29.8103 1388.68 24.2611L1381.09 21.7389ZM129.791 27H1384.89V19H129.791V27ZM136.839 41.9297C136.839 34.8813 135.698 28.0912 133.587 21.7389L125.995 24.2611C127.839 29.8103 128.839 35.7492 128.839 41.9297H136.839Z" fill="#B2805C" mask="url(#path-1-inside-1_504_1295)"/>
<rect x="89" y="45" width="1334" height="436" stroke="#B2805C" stroke-width="4"/>
</svg>
