<svg width="208" height="204" viewBox="0 0 208 204" fill="none" xmlns="http://www.w3.org/2000/svg">
<g id="Object" opacity="0.3" clip-path="url(#clip0_504_1313)">
<path id="Vector" d="M100.29 103.312C101.196 101.167 101.509 98.8486 101.517 96.5679C102.696 99.0222 102.246 102.476 101.021 104.895C100.38 106.162 99.241 107.539 97.8507 107.569C96.9983 107.588 96.3066 107.023 95.9603 106.183C97.7855 107.365 99.4827 105.222 100.29 103.312Z" fill="#B2805C"/>
<path id="Vector_2" d="M77.4562 58.6057C85.4154 49.377 94.7937 45.1238 103.864 46.6295C114.686 48.426 123.348 56.0906 127.899 67.3959C129.051 70.2665 129.998 73.2151 130.733 76.2196C134.606 78.8172 138.705 81.0596 142.98 82.9195C144.443 82.8316 145.912 82.9077 147.358 83.1464C147.82 83.223 148.296 83.3233 148.852 83.4609L174.82 88.5515C186.864 90.551 194.905 102.774 192.743 115.798C190.581 128.821 179.022 137.79 167.032 135.798L164.437 135.47L152.353 164.335C151.363 167.266 148.069 169.135 144.824 168.596C144.795 168.592 144.767 168.586 144.739 168.579L138.017 167.042C137.296 166.878 136.632 166.523 136.095 166.014C135.93 165.906 135.773 165.786 135.625 165.655C132.163 162.594 131.896 162.17 131.753 161.943C131.304 161.239 131.08 160.414 131.11 159.58C131.14 158.745 131.423 157.939 131.922 157.269L135.886 151.899C137.62 149.552 138.968 146.942 139.879 144.17L143.608 132.831L141.165 132.522C140.506 132.486 139.849 132.415 139.197 132.31C137.749 132.068 136.334 131.66 134.979 131.096C129.681 131.713 124.558 133.107 120.066 134.698C118.826 136.497 117.488 138.227 116.058 139.88C107.439 149.822 98.597 153.886 86.3955 151.861C77.3249 150.355 69.8238 143.3 65.2733 131.995C60.9074 121.149 59.766 107.568 62.059 93.7554C64.352 79.9426 69.8201 67.4594 77.4562 58.6057ZM120.518 110.676L106.462 106.783L121.058 107.642L113.03 105.095L121.779 104.971C121.804 104.833 121.828 104.694 121.852 104.556L116.26 102.767L122.241 102.147C122.265 101.983 122.288 101.819 122.311 101.655L117.831 100.176L122.598 99.35C122.618 99.169 122.638 98.9881 122.657 98.8074L118.635 97.5147L122.851 96.6172C122.865 96.4232 122.877 96.2301 122.89 96.0366L119.083 94.8131L122.998 93.9798C123.005 93.7951 123.013 93.6103 123.019 93.4262L104.553 93.3044C106.006 95.5672 106.614 98.9446 106.006 102.611C105.715 104.447 105.104 106.217 104.202 107.842L120.419 111.044C120.452 110.921 120.486 110.8 120.518 110.676ZM97.4634 109.504C99.5357 109.848 102.396 106.91 103.187 102.143C103.978 97.3764 102.221 93.6716 100.149 93.3276C98.0765 92.9836 95.2164 95.9219 94.4251 100.689C93.6338 105.455 95.3911 109.16 97.4634 109.504ZM116.625 73.7195C118.068 74.7396 119.524 75.7473 121.029 76.678C118.338 73.8912 115.384 71.3464 112.432 68.8306C108.551 65.5246 104.507 62.3709 100.336 59.4235C98.8926 58.4037 97.4363 57.3962 95.9302 56.4666C98.6196 59.2555 101.574 61.7989 104.526 64.3157C108.405 67.6224 112.455 70.7716 116.625 73.7195ZM118.186 68.8415C116.474 66.3376 114.324 64.0946 112.159 61.9823C109.996 59.8718 107.687 57.7826 105.136 56.1465C106.846 58.6526 108.997 60.8942 111.163 63.0057C113.328 65.1152 115.637 67.2026 118.186 68.8415ZM112.515 129.557L104.371 133.194L114.539 125.145L95.1646 132.172L115.908 120.739L97.9158 124.592L113.47 117.92L96.3364 112.196C96.247 112.165 96.1609 112.126 96.0792 112.078C92.6093 110.811 90.6708 105.857 91.6066 100.221C91.8078 98.9898 92.1462 97.7853 92.6154 96.6298L74.3304 90.1599L94.8832 92.9273C95.3931 92.3532 95.977 91.8493 96.6196 91.429L74.2651 82.8776C74.6975 81.3683 75.1719 79.8738 75.6881 78.394L97.7293 87.6694L76.8659 75.2498C78.4181 71.3465 80.3413 67.6012 82.6092 64.0655C82.6491 64.0034 82.6913 63.9432 82.7318 63.8815L104.169 75.6137L83.9435 62.1544C84.9789 60.7662 86.1012 59.446 87.2488 58.1446C78.3607 65.008 70.9634 78.499 68.2599 94.7847C64.0699 120.024 72.7151 142.559 87.5313 145.019C96.5051 146.508 105.715 140.295 112.515 129.557ZM149.656 163.39C149.669 163.354 149.682 163.317 149.697 163.281L161.496 135.097L160.768 135.005L157.61 140.13L158.377 134.702L157.421 134.581L154.336 139.586L155.086 134.285L154.074 134.157L151.063 139.043L151.794 133.868L151.069 133.776L146.148 148.745C145.23 151.538 143.873 154.165 142.126 156.529L137.908 162.243C137.781 162.414 137.699 162.614 137.669 162.825C137.639 163.036 137.663 163.251 137.737 163.451C137.811 163.651 137.933 163.83 138.093 163.97C138.253 164.111 138.446 164.21 138.654 164.257L145.33 165.784C146.969 166.036 149.086 165.143 149.656 163.39ZM145.098 133.908C143.841 137.076 142.74 140.309 141.639 143.534C140.886 145.741 140.091 147.89 138.969 149.942C137.903 151.893 136.58 153.663 135.295 155.472C134.093 157.165 132.447 158.938 133.04 161.173C133.033 159.157 134.358 157.829 135.527 156.332C136.886 154.592 138.264 152.845 139.377 150.935C141.623 147.077 142.734 142.609 143.926 138.341C144.337 136.869 144.738 135.393 145.098 133.908ZM172.914 104.989C172.231 100.475 170.607 96.2822 167.618 92.7743C168.288 93.2623 168.924 93.7942 169.523 94.3665C172.712 97.4515 174.656 101.265 175.775 105.517C175.093 101.003 173.469 96.8103 170.48 93.3023C171.149 93.7904 171.786 94.3223 172.385 94.8947C175.574 97.9796 177.517 101.793 178.637 106.045C177.955 101.531 176.33 97.3385 173.341 93.8305C174.011 94.3186 174.647 94.8505 175.247 95.4229C178.435 98.5078 180.379 102.321 181.498 106.573C180.816 102.059 179.192 97.8666 176.203 94.3587C176.872 94.8467 177.509 95.3787 178.108 95.9511C181.297 99.0359 183.241 102.85 184.36 107.101C183.678 102.588 182.053 98.3947 179.064 94.8868C179.734 95.3749 180.371 95.9069 180.97 96.4793C184.159 99.5643 186.102 103.378 187.222 107.63C186.539 103.114 184.914 98.9193 181.922 95.4106C181.233 94.6069 180.482 93.857 179.679 93.1672C177.997 92.2833 176.185 91.674 174.311 91.3626L153.836 87.3493C155.214 88.16 159.914 91.7905 160.939 92.7819C164.127 95.8666 166.071 99.6803 167.19 103.932C166.508 99.4184 164.884 95.2254 161.895 91.7177C162.564 92.2058 163.201 92.7377 163.8 93.3101C166.989 96.395 168.933 100.208 170.052 104.46C169.37 99.9467 167.745 95.7537 164.757 92.246C165.426 92.7341 166.063 93.266 166.662 93.8383C169.85 96.9231 171.794 100.737 172.914 104.989ZM128.651 124.162C128.011 125.126 127.309 126.048 126.551 126.922C128.218 125.777 129.746 124.442 131.105 122.945C133.665 120.111 135.525 116.823 136.958 113.3C135.916 117.191 134.353 120.839 132.015 124.136C131.405 124.992 130.743 125.811 130.033 126.586C131.674 125.54 133.189 124.307 134.546 122.912C137.171 120.204 139.075 116.987 140.533 113.529C139.45 117.375 137.819 120.974 135.373 124.155C134.791 124.911 134.167 125.633 133.503 126.318C134.984 125.451 136.365 124.424 137.621 123.256C140.483 120.585 142.553 117.325 144.109 113.757C142.969 117.621 141.239 121.224 138.63 124.322C138.102 124.949 137.548 125.54 136.972 126.102C138.48 125.298 139.886 124.318 141.162 123.183C144.032 120.618 146.116 117.477 147.685 113.986C146.495 117.853 144.679 121.46 141.927 124.463C141.465 124.967 140.986 125.444 140.493 125.899C141.971 125.173 143.356 124.272 144.617 123.213C147.549 120.748 149.664 117.67 151.26 114.214C150.007 118.132 148.079 121.766 145.143 124.693C144.786 125.049 144.422 125.39 144.05 125.717C145.444 125.083 146.76 124.288 147.97 123.348C151.018 120.977 153.195 117.905 154.836 114.443C153.568 118.268 151.64 121.774 148.715 124.592C148.352 124.942 147.981 125.276 147.601 125.593C148.981 125.016 150.284 124.271 151.483 123.375C154.557 121.077 156.749 118.101 158.411 114.672C157.106 118.483 155.135 121.806 152.207 124.597C151.753 125.029 151.28 125.431 150.793 125.809C156.242 122.993 160.312 117.424 161.436 110.653C162.884 101.934 158.914 93.3429 151.888 89.5288C144.507 87.9608 137.547 84.632 131.744 81.095C133.075 89.0473 133.071 97.1659 131.732 105.117C130.588 112.111 128.477 118.912 125.459 125.325C126.279 124.567 127.049 123.759 127.765 122.903C130.218 119.965 131.996 116.624 133.382 113.072C132.385 117.013 130.905 120.761 128.651 124.162ZM123.615 117.199C126.115 110.043 127.538 102.556 127.84 94.9819C128.221 85.9357 126.863 76.5203 123.104 68.2342C119.613 60.5385 113.634 53.4107 105.108 51.3697C104.458 51.2141 103.795 51.1222 103.137 51.0134C106.645 51.8903 109.839 53.3662 112.62 55.7093C115.876 58.4513 118.4 61.9983 120.304 65.7829C124.295 73.7155 125.809 82.7408 125.825 91.5601C125.823 98.8657 124.783 106.134 122.737 113.147C120.263 121.668 116.282 130.012 110.373 136.698C104.904 142.887 97.543 147.776 89.017 147.614C88.3843 147.602 87.7535 147.53 87.1232 147.477C90.9162 148.109 94.592 147.907 98.2539 146.663C102.36 145.269 106.027 142.86 109.22 139.954C115.904 133.871 120.635 125.669 123.615 117.199ZM63.6046 120.736C64.2673 124.071 65.1402 127.375 66.4512 130.519C67.5824 133.208 68.9837 135.776 70.6335 138.183C67.6508 133.411 65.681 128.3 64.49 122.799C63.1864 116.779 62.8157 110.527 63.0955 104.381C63.6696 91.7732 66.9394 79.0437 73.1794 68.036C76.2695 62.5851 80.2288 57.8439 85.1889 54.0158C80.7107 57.2244 76.8917 61.2645 73.9399 65.9159C70.5426 71.2032 68.0523 76.9114 66.1436 82.8882C64.1974 89.055 63.003 95.4343 62.5865 101.887C62.1652 108.181 62.3729 114.538 63.6046 120.736Z" fill="#B2805C"/>
<path id="Vector_3" d="M69.9485 59.9634C68.5584 59.2166 67.2179 58.3746 65.8964 57.5133C62.3261 55.1864 58.9556 52.5894 55.6093 49.9561C57.0433 49.4789 58.4764 49.0015 59.9167 48.5458C56.746 45.7894 53.6251 42.9197 50.844 39.7688C52.6279 40.7755 54.351 41.8943 56.0442 43.0456C59.0225 45.0708 61.8829 47.2478 64.7465 49.429C63.3575 49.9206 61.969 50.4082 60.5734 50.8771C60.874 51.1349 61.1791 51.3874 61.4777 51.6475C64.4503 54.2354 67.3986 56.9507 69.9485 59.9634Z" fill="#B2805C"/>
<path id="Vector_4" d="M60.6741 75.3622C59.0828 75.0708 57.5102 74.669 55.9504 74.2423C51.8783 73.1286 47.9114 71.7034 43.9558 70.2378C45.1742 69.3437 46.3917 68.4496 47.6226 67.5739C43.7591 65.9234 39.908 64.1499 36.2943 62.0044C38.301 62.4151 40.2842 62.9512 42.2492 63.5274C45.7052 64.5409 49.0956 65.7351 52.4903 66.9323C51.3192 67.8265 50.1474 68.7166 48.9631 69.5912C49.3283 69.7443 49.6961 69.891 50.0602 70.0468C53.6834 71.5977 57.3226 73.2774 60.6741 75.3622Z" fill="#B2805C"/>
<path id="Vector_5" d="M40.6077 90.5511C36.4234 90.173 32.2132 89.6738 28.1138 88.7476C30.1494 88.5192 32.2013 88.4175 34.2481 88.3595C37.8482 88.2575 41.4418 88.3476 45.0402 88.4393C44.2034 89.6491 43.3647 90.8553 42.5094 92.0506C44.3052 92.2017 46.0974 92.3901 47.8859 92.6156C50.4221 92.9104 52.9394 93.3505 55.4252 93.9338C53.8216 94.1475 52.2017 94.2503 50.5865 94.3256C46.3693 94.5223 42.1563 94.3902 37.9415 94.2162C38.8246 92.9899 39.7069 91.7638 40.6077 90.5511Z" fill="#B2805C"/>
<path id="Vector_6" d="M37.1015 118.302C37.6621 116.898 38.222 115.495 38.803 114.101C34.6514 114.745 30.4453 115.278 26.2437 115.37C28.1637 114.656 30.1302 114.062 32.1023 113.511C35.5711 112.542 39.0799 111.761 42.5939 110.98C42.0742 112.357 41.5518 113.73 41.0107 115.096C42.7899 114.809 44.5741 114.554 46.3644 114.345C48.8967 114.019 51.4457 113.837 53.9988 113.803C52.4944 114.397 50.9473 114.889 49.3981 115.352C45.3535 116.562 41.2334 117.452 37.1015 118.302Z" fill="#B2805C"/>
<path id="Vector_7" d="M31.6854 140.255C33.3684 139.087 35.1258 138.023 36.8996 137C40.0196 135.201 43.2249 133.574 46.4353 131.946C46.2733 133.408 46.108 134.868 45.9229 136.326C47.575 135.606 49.2403 134.917 50.9228 134.27C53.2949 133.325 55.7192 132.517 58.1838 131.85C56.8741 132.8 55.4973 133.659 54.1115 134.493C50.4936 136.668 46.723 138.553 42.9311 140.401C43.126 138.902 43.3203 137.404 43.5372 135.909C39.6752 137.563 35.7328 139.123 31.6854 140.255Z" fill="#B2805C"/>
</g>
<defs>
<clipPath id="clip0_504_1313">
<rect width="162.674" height="154.844" fill="white" transform="matrix(-0.93408 0.357064 0.357064 0.93408 152.563 0.884766)"/>
</clipPath>
</defs>
</svg>
